<?xml version="1.0" encoding="UTF-8"?>
<svg class='hover:animate-spin' width="125px" height="125px" viewBox="0 0 125 125" version="1.1" xmlns="http://www.w3.org/2000/svg" xmlns:xlink="http://www.w3.org/1999/xlink">
    <title>Logo</title>
    <g id="Website" stroke="none" stroke-width="1" fill="none" fill-rule="evenodd">
        <g id="Desktop-HD" transform="translate(-532.000000, -245.000000)">
            <g id="Logo" transform="translate(532.000000, 245.000000)">
                <g id="Ring" transform="translate(4.188126, 4.188126)" stroke="#000000" stroke-width="3.07950414">
                    <path d="M111.47589,79.8630837 C114.25628,73.0888576 115.789356,65.6708022 115.789356,57.8946779 C115.789356,25.9203302 89.8690256,0 57.8946779,0 M36.6379011,4.02691845 C22.6988025,9.53192855 11.4084571,20.2908899 5.20792427,33.8627432 M0,57.8946779 C0,89.8690256 25.9203302,115.789356 57.8946779,115.789356 C69.7481498,115.789356 80.7696062,112.227074 89.9468876,106.114669" id="Larger"></path>
                    <path d="M15.4373644,26.633584 C8.98632285,35.3804516 5.17356696,46.1923063 5.17356696,57.8946779 M6.84045193,71.0980106 C12.7010737,93.8252854 33.3370597,110.615789 57.8946779,110.615789 L57.8946779,110.615789 M74.3310614,108.003209 C95.3997204,101.096587 110.615789,81.2725841 110.615789,57.8946779 M92.9058615,18.4765029 C83.5949597,10.200566 71.3318781,5.17356696 57.8946779,5.17356696" id="Smaller"></path>
                </g>
                <g id="Circle" transform="translate(12.810737, 12.810737)">
                    <path d="M0,49.2720663 C0,76.4842771 22.0598555,98.5441326 49.2720663,98.5441326 L49.2720663,98.5441326 C76.4842771,98.5441326 98.5441326,76.4842771 98.5441326,49.2720663" id="Lower" fill="#F7BA4A"></path>
                    <path d="M98.5441326,49.2720663 C98.5441326,22.0598555 76.4842771,0 49.2720663,0 C22.0598555,0 0,22.0598555 0,49.2720663" id="Upper" fill="#000000"></path>
                </g>
                <path d="M57.0570528,80.5999336 L58.0400305,72.8913188 L64.4035179,72.8913188 L63.4205402,80.5999336 L70.4565912,80.5999336 L71.439569,72.8913188 L78.7342984,72.8913188 L78.7342984,66.2174174 L72.2673397,66.2174174 L73.1468461,58.767481 L80.4933111,58.767481 L80.4933111,52.0935796 L73.9746168,52.0935796 L74.9575945,44.3849649 L67.9215434,44.3849649 L66.9385657,52.0935796 L60.5750783,52.0935796 L61.5580561,44.3849649 L54.522005,44.3849649 L53.5390273,52.0935796 L46.1925622,52.0935796 L46.1925622,58.767481 L52.7112565,58.767481 L51.8317502,66.2174174 L44.4852851,66.2174174 L44.4852851,72.8913188 L51.0039794,72.8913188 L50.0210017,80.5999336 L57.0570528,80.5999336 Z M65.2312886,66.2174174 L58.8678012,66.2174174 L59.7473076,58.767481 L66.110795,58.767481 L65.2312886,66.2174174 Z" id="#" fill="#FFFFFF" fill-rule="nonzero"></path>
            </g>
        </g>
    </g>
</svg>