<?xml version="1.0" encoding="UTF-8"?>
<svg width="660px" height="150px" viewBox="0 0 660 150" version="1.1" xmlns="http://www.w3.org/2000/svg" xmlns:xlink="http://www.w3.org/1999/xlink">
    <title>Group 6</title>
    <g id="Posts" stroke="none" stroke-width="1" fill="none" fill-rule="evenodd">
        <g id="Poster-Copy" transform="translate(-430.000000, -562.000000)">
            <g id="Group-6" transform="translate(430.000000, 562.000000)">
                <path d="M190.259082,116 L190.259082,81.5849652 L228.39142,81.5849652 L228.39142,116 L247.817328,116 L247.817328,32.0608906 L228.39142,32.0608906 L228.39142,65.1568823 L190.259082,65.1568823 L190.259082,32.0608906 L170.833173,32.0608906 L170.833173,116 L190.259082,116 Z M276.596451,116 L284.031058,98.013048 L323.002787,98.013048 L330.437394,116 L350.822607,116 L313.289833,32.0608906 L294.103751,32.0608906 L256.690891,116 L276.596451,116 Z M316.887224,83.2637474 L290.266535,83.2637474 L303.576879,51.1270598 L316.887224,83.2637474 Z M387.15625,117.438956 C394.830682,117.438956 401.345956,116.279797 406.702071,113.961479 C412.058185,111.643161 416.075271,108.505437 418.753329,104.548307 C421.431386,100.591178 422.770415,96.2143528 422.770415,91.4178323 C422.770415,85.8218916 421.311473,81.3851101 418.39359,78.1074878 C415.475706,74.8298654 411.978243,72.4316051 407.901201,70.912707 C403.824158,69.3938088 398.587957,67.8749106 392.192596,66.3560125 C386.037061,64.9969983 381.460381,63.6179987 378.462556,62.2190135 C375.464731,60.8200283 373.965818,58.6815796 373.965818,55.8036673 C373.965818,52.925755 375.264876,50.6074367 377.862991,48.8487125 C380.461106,47.0899883 384.478192,46.2106262 389.914249,46.2106262 C397.668624,46.2106262 405.422999,48.4090315 413.177374,52.805842 L413.177374,52.805842 L419.173024,38.0565413 C415.335808,35.658281 410.859055,33.8196148 405.742767,32.5405427 C400.626478,31.2614706 395.390277,30.6219345 390.034162,30.6219345 C382.359729,30.6219345 375.864441,31.7810936 370.548297,34.0994119 C365.232154,36.4177301 361.255039,39.555454 358.616952,43.5125834 C355.978866,47.4697129 354.659823,51.8865089 354.659823,56.7629714 C354.659823,62.358912 356.118765,66.8356645 359.036648,70.1932289 C361.954531,73.5507933 365.451994,75.9890245 369.529037,77.5079227 C373.606079,79.0268209 378.842281,80.545719 385.237641,82.0646172 C389.394626,83.0239213 392.692234,83.9032834 395.130465,84.7027035 C397.568696,85.5021236 399.567246,86.5613552 401.126116,87.8803984 C402.684985,89.1994415 403.464419,90.8582382 403.464419,92.8567884 C403.464419,95.5748167 402.145376,97.7532365 399.50729,99.3920476 C396.869204,101.030859 392.792161,101.850264 387.276163,101.850264 C382.319758,101.850264 377.363354,101.050844 372.406949,99.4520042 C367.450544,97.853164 363.173647,95.7347007 359.576257,93.0966144 L359.576257,93.0966144 L352.981041,107.726002 C356.738315,110.603914 361.714705,112.942218 367.910211,114.740913 C374.105717,116.539609 380.521063,117.438956 387.15625,117.438956 Z M455.506667,116 L455.506667,81.5849652 L493.639005,81.5849652 L493.639005,116 L513.064914,116 L513.064914,32.0608906 L493.639005,32.0608906 L493.639005,65.1568823 L455.506667,65.1568823 L455.506667,32.0608906 L436.080759,32.0608906 L436.080759,116 L455.506667,116 Z M563.668205,116.959304 C575.339739,116.959304 584.213302,113.481827 590.288894,106.526872 L590.288894,106.526872 L580.336114,95.7347007 C578.097738,97.893135 575.679492,99.4719897 573.081377,100.471265 C570.483262,101.47054 567.505422,101.970177 564.147857,101.970177 C559.271395,101.970177 555.194352,100.811018 551.91673,98.4927 C548.639108,96.1743818 546.560615,93.0166724 545.681253,89.019572 L545.681253,89.019572 L594.48585,89.019572 C594.725676,85.9018336 594.845589,84.2230515 594.845589,83.9832254 C594.845589,77.2680967 593.386647,71.3723735 590.468764,66.296056 C587.55088,61.2197384 583.533794,57.3225655 578.417506,54.6045372 C573.301217,51.8865089 567.585364,50.5274947 561.269945,50.5274947 C554.794642,50.5274947 548.93889,51.9464654 543.702689,54.7844067 C538.466487,57.622348 534.349474,61.5794774 531.351648,66.655795 C528.353823,71.7321126 526.85491,77.4279807 526.85491,83.7433994 C526.85491,90.1387601 528.373808,95.8546138 531.411605,100.89096 C534.449401,105.927307 538.76627,109.864451 544.36221,112.702392 C549.958151,115.540333 556.393482,116.959304 563.668205,116.959304 Z M577.218376,78.1074878 L545.441427,78.1074878 C546.080963,73.9505033 547.839688,70.6728809 550.7176,68.2746207 C553.595512,65.8763604 557.152932,64.6772303 561.389858,64.6772303 C565.546842,64.6772303 569.064291,65.8963459 571.942203,68.3345772 C574.820116,70.7728085 576.57884,74.0304453 577.218376,78.1074878 L577.218376,78.1074878 Z M629.020798,116.959304 C635.336216,116.959304 640.792258,116.099928 645.388924,114.381174 C649.985589,112.662421 653.483052,110.244175 655.881313,107.126437 C658.279573,104.008699 659.478703,100.451279 659.478703,96.4541788 C659.478703,91.7376003 658.239602,88.0602679 655.7614,85.4221816 C653.283197,82.7840953 650.365314,80.9654146 647.00775,79.9661395 C643.650185,78.9668644 639.333317,78.0275458 634.057144,77.1481837 C629.340566,76.4287056 625.903059,75.6692565 623.744625,74.8698364 C621.586191,74.0704163 620.506974,72.6714312 620.506974,70.6728809 C620.506974,68.9141568 621.506249,67.4752006 623.504799,66.3560125 C625.503349,65.2368243 628.501175,64.6772303 632.498275,64.6772303 C639.213404,64.6772303 645.408909,66.2760705 651.084792,69.4737508 L651.084792,69.4737508 L657.320269,56.1634063 C654.362414,54.4046821 650.625125,53.0256825 646.108402,52.0264074 C641.591678,51.0271323 637.054969,50.5274947 632.498275,50.5274947 C626.34274,50.5274947 621.006611,51.4068568 616.489888,53.165581 C611.973164,54.9243052 608.535658,57.382522 606.177369,60.5402313 C603.819079,63.6979407 602.639935,67.3153166 602.639935,71.392359 C602.639935,76.2688216 603.899021,80.026096 606.417195,82.6641823 C608.935368,85.3022686 611.913208,87.1409348 615.350714,88.1801809 C618.78822,89.219427 623.14506,90.1387601 628.421233,90.9381802 C632.897985,91.4977743 636.215578,92.1772813 638.374013,92.9767014 C640.532447,93.7761215 641.611664,95.0951647 641.611664,96.9338309 C641.611664,100.850989 637.654535,102.809569 629.740276,102.809569 C625.823117,102.809569 621.826017,102.229989 617.748974,101.07083 C613.671932,99.9116707 610.194454,98.412758 607.316542,96.5740918 L607.316542,96.5740918 L601.081065,110.004349 C604.118862,112.0029 608.195904,113.661696 613.312193,114.980739 C618.428481,116.299783 623.664683,116.959304 629.020798,116.959304 Z" id="HASHes" fill="#000000" fill-rule="nonzero"></path>
                <g id="Group" transform="translate(0.000000, 0.000000)">
                    <g id="Logo" transform="translate(0.000000, 0.000000)">
                        <g id="Ring" transform="translate(5.055856, 5.055856)" stroke="#666666" stroke-width="3.71754134">
                            <path d="M134.572388,96.4097793 C137.928844,88.2320128 139.779554,79.2770233 139.779554,69.8897771 C139.779554,31.2907191 108.488835,0 69.8897771,0 M44.2288451,4.86124879 C27.4017285,11.5068325 13.7721558,24.4949247 6.28694518,40.878707 M0,69.8897771 C0,108.488835 31.2907191,139.779554 69.8897771,139.779554 C84.1991496,139.779554 97.5041226,135.479209 108.582829,128.100386" id="Larger"></path>
                            <path d="M18.6358055,32.1517506 C10.8481837,42.7108668 6.24546945,55.7628112 6.24546945,69.8897771 M8.25771345,85.8286856 C15.3325874,113.264786 40.2441081,133.534085 69.8897771,133.534085 L69.8897771,133.534085 M89.7315868,130.380209 C115.165425,122.042616 133.534085,98.1113117 133.534085,69.8897771 M112.154868,22.3046179 C100.914856,12.3140038 86.1110078,6.24546945 69.8897771,6.24546945" id="Smaller"></path>
                        </g>
                        <g id="Circle" transform="translate(15.464972, 15.464972)">
                            <path d="M0,59.4806614 C0,92.3309236 26.6303992,118.961323 59.4806614,118.961323 L59.4806614,118.961323 C92.3309236,118.961323 118.961323,92.3309236 118.961323,59.4806614" id="Lower" fill="#F7BA4A"></path>
                            <path d="M118.961323,59.4806614 C118.961323,26.6303992 92.3309236,5.50409048e-15 59.4806614,5.50409048e-15 C26.6303992,5.50409048e-15 0,26.6303992 0,59.4806614" id="Upper" fill="#666666"></path>
                        </g>
                        <path d="M68.8786059,97.2992959 L70.0652451,87.9935464 L77.7471725,87.9935464 L76.5605333,97.2992959 L85.0543718,97.2992959 L86.241011,87.9935464 L95.0471229,87.9935464 L95.0471229,79.9368908 L87.2402861,79.9368908 L88.3020159,70.9434148 L97.1705825,70.9434148 L97.1705825,62.8867592 L89.301291,62.8867592 L90.4879302,53.5810097 L81.9940917,53.5810097 L80.8074525,62.8867592 L73.1255251,62.8867592 L74.3121643,53.5810097 L65.8183259,53.5810097 L64.6316867,62.8867592 L55.7631201,62.8867592 L55.7631201,70.9434148 L63.6324116,70.9434148 L62.5706818,79.9368908 L53.7021151,79.9368908 L53.7021151,87.9935464 L61.5714066,87.9935464 L60.3847674,97.2992959 L68.8786059,97.2992959 Z M78.7464476,79.9368908 L71.0645202,79.9368908 L72.12625,70.9434148 L79.8081774,70.9434148 L78.7464476,79.9368908 Z" id="#" fill="#FFFFFF" fill-rule="nonzero"></path>
                    </g>
                </g>
            </g>
        </g>
    </g>
</svg>