<?xml version="1.0" encoding="UTF-8"?>
<svg width="524px" height="629px" viewBox="0 0 524 629" version="1.1" xmlns="http://www.w3.org/2000/svg" xmlns:xlink="http://www.w3.org/1999/xlink">
    <title>undraw_check_boxes_m3d0</title>
    <g id="Page-1" stroke="none" stroke-width="1" fill="none" fill-rule="evenodd">
        <g id="undraw_check_boxes_m3d0" fill-rule="nonzero">
            <ellipse id="Oval" fill="#E6E6E6" cx="325" cy="618.5076" rx="199" ry="10"></ellipse>
            <circle id="Oval" fill="#E6E6E6" cx="98.7538" cy="98.7538" r="98.7538"></circle>
            <circle id="Oval" fill="#6DD400" cx="98.7538" cy="98.7538" r="82.29483"></circle>
            <polygon id="Path" fill="#FFFFFF" points="91.121 132.566 67.146 101.741 81.088 90.896 92.44 105.492 130.789 65.011 143.612 77.16"></polygon>
            <path d="M273.74375,118.89086 C267.25841,103.22716 266.2055,88.44365 275.34791,75.31206 L275.34791,75.31206 L275.34791,75.31206 C275.676062,66.3973183 279.602177,57.9959071 286.230231,52.0252109 C292.858284,46.0545147 301.622664,43.0240483 310.52315,43.62543 L316.48409,44.0282 C329.040817,44.8437237 340.028065,52.7611758 344.77491,64.41467 C355.8904,91.98246 356.24028,128.62152 353.46621,167.89292 L271.94,167.89292 C276.78212,149.52705 279.268,132.29001 273.74375,118.89086 Z" id="Path" fill="#2F2E41"></path>
            <path d="M168.46181,166.94952 L146.91757,157.27168 C142.574073,155.320547 139.291617,151.579795 137.92149,147.019572 C136.551364,142.459349 137.228548,137.528917 139.77742,133.50696 L139.77742,133.50696 C142.603513,129.047571 147.401682,126.219315 152.671884,125.906383 C157.942086,125.593451 163.04123,127.834029 166.37518,131.92765 L176.32838,144.14877 L222.73072,185.30292 L253.57584,164.71892 L267.55544,188.42043 L217.52025,218.64432 L168.46181,166.94952 Z" id="Path" fill="#9F616A"></path>
            <path d="M265.30871,195.39227 L248.29955,162.84564 L314.53114,133.34473 L315.10458,139.5703 C316.178284,151.226855 310.99795,162.580158 301.48991,169.40843 L265.30871,195.39227 Z" id="Path" fill="#F9A826"></path>
            <path d="M351.13685,131.40021 L283.58659,187.30388 L279.70439,181.8688 L298.33894,148.48189 L306.87978,144.59969 C308.92609,135.92997 303.70208,124.30361 296.78606,111.98922 L329.39653,107.33058 C330.97055,117.9072 338.1384,125.96587 351.13685,131.40021 Z" id="Path" fill="#9F616A"></path>
            <polygon id="Path" fill="#2F2E41" points="432.663 517.291 421.405 533.984 331.726 483.127 344.149 421.789"></polygon>
            <path d="M314.256,596.87587 L296.00966,588.72325 L291.351,375.20231 L273.88109,259.12456 L341.81957,246.3133 L355.79549,276.59446 C390.14072,323.69986 340.07306,468.03321 314.256,596.87587 Z" id="Path" fill="#2F2E41"></path>
            <path d="M315.727,593.97472 L319.47088,602.12317 C320.897315,605.227768 320.77427,608.823584 319.138946,611.823411 C317.503623,614.823238 314.548004,616.874907 311.16573,617.35809 L261.6678,624.42922 C256.635259,625.148154 251.844563,622.041526 250.44798,617.15349 L250.44798,617.15349 C249.168856,612.67657 251.092526,607.90267 255.11828,605.56338 L296.70151,584.75026 L315.727,593.97472 Z" id="Path" fill="#2F2E41"></path>
            <path d="M430.34554,514.13639 L439.28886,513.47994 C442.696306,513.229831 446.021823,514.603136 448.25993,517.184631 C450.498037,519.766126 451.385989,523.252753 450.65531,526.59032 L439.96218,575.43398 C438.874988,580.399998 434.288618,583.801041 429.22089,583.39923 L429.22089,583.39923 C424.579388,583.031208 420.78021,579.558909 419.99721,574.96915 L415.04778,528.73222 L430.34554,514.13639 Z" id="Path" fill="#2F2E41"></path>
            <circle id="Oval" fill="#9F616A" cx="308.43266" cy="91.80178" r="31.05759"></circle>
            <path d="M340.26669,250.97194 L272.71643,264.94786 L271.16355,219.91435 C261.38213,209.55868 284.19508,168.08382 292.12742,148.48189 L302.22114,145.37613 L285.13947,176.43372 L344.92533,127.51801 L356.57193,130.62377 L359.67769,187.30388 L340.26669,250.97194 Z" id="Path" fill="#F9A826"></path>
            <path d="M344.92533,278.14733 L330.27654,296.67374 C327.323222,300.408804 322.893806,302.677703 318.137036,302.892012 C313.380266,303.106321 308.764766,301.244926 305.48754,297.79057 L305.48754,297.79057 C301.853882,293.960496 300.283786,288.616691 301.268109,283.42978 C302.252432,278.242869 305.671062,273.845777 310.45524,271.61316 L324.73797,264.94789 L375.98297,230.0081 L363.55997,195.06831 L389.95897,187.30391 L407.04064,243.20757 L344.92533,278.14733 Z" id="Path" fill="#9F616A"></path>
            <path d="M347.642,161.68137 L291.3734,161.68137 C293.48766,151.04562 299.15566,141.39671 314.65696,134.47846 C325.95996,112.87577 330.78887,93.2813 314.65696,80.18881 C296.2303,75.94381 289.09381,68.23536 291.3734,57.63843 L324.3584,52.20335 C351.48494,76.36196 351.79463,117.60061 347.642,161.68137 Z" id="Path" fill="#2F2E41"></path>
            <path d="M396.17036,191.18608 L360.45413,199.72692 L348.03113,128.29445 L354.20813,129.25961 C365.773676,131.066751 375.516991,138.864216 379.815,149.7525 L396.17036,191.18608 Z" id="Path" fill="#F9A826"></path>
        </g>
    </g>
</svg>